<?xml version="1.0" standalone="no"?>
<!DOCTYPE svg PUBLIC "-//W3C//DTD SVG 20010904//EN"
 "http://www.w3.org/TR/2001/REC-SVG-20010904/DTD/svg10.dtd">
<svg version="1.0" xmlns="http://www.w3.org/2000/svg"
 width="192.000000pt" height="192.000000pt" viewBox="0 0 192.000000 192.000000"
 preserveAspectRatio="xMidYMid meet">

<g transform="translate(0.000000,192.000000) scale(0.100000,-0.100000)"
fill="#000000" stroke="none">
<path d="M243 1910 c-92 -19 -174 -86 -217 -179 -21 -46 -21 -52 -21 -771 l0
-725 24 -52 c27 -61 93 -126 159 -156 47 -22 50 -22 772 -22 l725 0 52 24 c61
27 126 93 156 159 22 47 22 50 22 772 l0 725 -24 52 c-27 61 -93 126 -159 156
-47 22 -52 22 -747 24 -385 0 -719 -3 -742 -7z m747 -410 l0 -160 103 0 102
-1 -28 -24 c-24 -22 -38 -25 -102 -25 l-74 0 -3 -107 -3 -107 -40 -23 c-22
-12 -43 -23 -47 -23 -5 0 -8 125 -8 278 -1 228 -3 280 -15 296 -8 11 -15 28
-15 38 0 16 9 18 65 18 l65 0 0 -160z m-320 96 c0 -24 0 -24 -127 -28 -71 -2
-133 -2 -140 0 -14 4 -25 31 -17 43 3 5 68 9 145 9 l139 0 0 -24z m100 -111
l0 -25 -106 0 -106 0 7 -32 c19 -91 82 -175 160 -214 30 -14 55 -29 55 -32 0
-3 -10 -16 -21 -28 l-22 -23 -39 20 c-50 25 -121 90 -149 136 l-21 34 -34 -49
c-35 -52 -101 -114 -147 -138 -26 -14 -31 -13 -64 7 l-35 22 50 24 c86 41 171
148 187 237 l8 38 -109 -3 c-115 -4 -134 0 -134 32 0 18 9 19 260 19 l260 0 0
-25z m620 -505 l0 -220 -200 0 -200 0 0 -81 0 -81 93 6 c73 6 277 29 331 39 6
1 12 -13 14 -30 2 -18 0 -33 -5 -33 -4 0 -53 -7 -108 -16 -55 -8 -173 -17
-262 -21 l-163 -6 0 136 0 137 205 0 205 0 0 156 0 156 -52 -45 c-151 -128
-345 -210 -563 -238 -87 -11 -273 -8 -294 6 -6 3 -11 40 -11 83 -1 52 -5 83
-15 96 -8 11 -15 28 -15 38 0 16 9 18 65 18 l65 0 0 -101 0 -102 123 6 c198
10 352 60 514 167 48 32 108 79 133 104 40 42 48 46 92 46 l48 0 0 -220z m210
-50 l0 -160 65 0 c63 0 65 -1 65 -25 0 -24 -2 -25 -65 -25 l-65 0 0 -130 0
-130 -50 0 -50 0 0 279 c0 224 -3 284 -14 307 -8 15 -13 31 -10 36 3 4 32 8
65 8 l59 0 0 -160z m-430 10 c0 -13 7 -20 20 -20 11 0 20 -7 20 -15 0 -8 -9
-15 -20 -15 -11 0 -20 -7 -20 -15 0 -8 -4 -15 -10 -15 -5 0 -10 7 -10 15 0 8
-9 15 -20 15 -11 0 -20 7 -20 15 0 8 9 15 20 15 13 0 20 7 20 20 0 11 5 20 10
20 6 0 10 -9 10 -20z m-100 -550 l0 -100 275 0 275 0 0 -25 0 -25 -325 0 -325
0 0 88 c-1 61 -5 93 -15 106 -8 11 -15 28 -15 38 0 16 9 18 65 18 l65 0 0
-100z"/>
</g>
</svg>
