<?xml version="1.0" standalone="no"?>
<!DOCTYPE svg PUBLIC "-//W3C//DTD SVG 20010904//EN"
 "http://www.w3.org/TR/2001/REC-SVG-20010904/DTD/svg10.dtd">
<svg version="1.0" xmlns="http://www.w3.org/2000/svg"
 width="256.000000pt" height="256.000000pt" viewBox="0 0 256.000000 256.000000"
 preserveAspectRatio="xMidYMid meet">
<metadata>
Created by potrace 1.14, written by Peter Selinger 2001-2017
</metadata>
<g transform="translate(0.000000,256.000000) scale(0.100000,-0.100000)"
fill="#000000" stroke="none">
<path d="M192 2539 c-73 -28 -143 -99 -170 -172 -22 -57 -22 -59 -22 -1087 0
-991 1 -1032 19 -1081 28 -72 79 -130 147 -164 l59 -30 1055 0 1055 0 50 23
c65 30 128 98 154 164 19 52 20 74 20 1078 1 1145 5 1086 -69 1178 -26 34 -58
59 -97 78 l-58 29 -1045 2 c-1027 2 -1046 2 -1098 -18z"/>
</g>
</svg>
